<?xml version="1.0" standalone="no"?>
<!DOCTYPE svg PUBLIC "-//W3C//DTD SVG 20010904//EN"
 "http://www.w3.org/TR/2001/REC-SVG-20010904/DTD/svg10.dtd">
<svg version="1.0" xmlns="http://www.w3.org/2000/svg"
 width="137.000000pt" height="137.000000pt" viewBox="0 0 137.000000 137.000000"
 preserveAspectRatio="xMidYMid meet">
<metadata>
Created by potrace 1.14, written by Peter Selinger 2001-2017
</metadata>
<g transform="translate(0.000000,137.000000) scale(0.100000,-0.100000)"
fill="#000000" stroke="none">
<path d="M648 1328 c-40 -31 -15 -98 36 -98 28 0 56 29 56 58 0 44 -56 68 -92
40z"/>
<path d="M473 1228 c-30 -39 -20 -82 20 -97 22 -9 56 2 69 23 13 19 9 54 -8
70 -19 19 -68 21 -81 4z"/>
<path d="M816 1224 c-20 -20 -21 -68 -1 -84 21 -17 64 -16 82 3 21 21 20 68
-3 84 -24 18 -59 16 -78 -3z"/>
<path d="M322 1139 c-12 -5 -27 -20 -33 -33 -26 -56 53 -104 94 -58 22 24 22
55 0 74 -28 24 -37 26 -61 17z"/>
<path d="M987 1122 c-35 -39 -10 -92 43 -92 49 0 70 56 37 98 -14 18 -62 15
-80 -6z"/>
<path d="M667 1108 c-21 -11 -22 -31 -3 -47 20 -16 46 -3 46 24 0 27 -19 37
-43 23z"/>
<path d="M152 1039 c-12 -4 -27 -20 -33 -33 -27 -58 53 -103 96 -56 35 39 -14
108 -63 89z"/>
<path d="M1166 1029 c-30 -24 -34 -59 -8 -82 22 -20 65 -22 80 -4 47 56 -16
130 -72 86z"/>
<path d="M493 1007 c-13 -20 -12 -36 3 -48 17 -14 44 4 44 31 0 21 -37 33 -47
17z"/>
<path d="M836 1012 c-3 -3 -6 -16 -6 -29 0 -18 6 -23 24 -23 26 0 39 19 26 40
-9 15 -35 22 -44 12z"/>
<path d="M1015 942 c-44 -9 -60 -66 -27 -95 48 -44 120 9 90 65 -11 23 -38 36
-63 30z"/>
<path d="M322 911 c-23 -14 -10 -46 21 -49 23 -3 27 0 27 21 0 14 -7 28 -16
31 -19 7 -16 8 -32 -3z"/>
<path d="M661 906 c-17 -20 -3 -46 25 -46 19 0 24 5 24 24 0 13 -7 27 -16 30
-21 8 -20 8 -33 -8z"/>
<path d="M155 842 c-58 -13 -49 -112 10 -112 44 0 79 53 57 86 -11 18 -45 31
-67 26z"/>
<path d="M830 837 c-48 -24 -30 -107 24 -107 29 0 43 11 55 43 9 24 8 31 -14
53 -28 28 -31 28 -65 11z"/>
<path d="M491 806 c-17 -20 -2 -48 23 -44 24 3 34 37 14 49 -18 12 -24 11 -37
-5z"/>
<path d="M1180 805 c-17 -20 -5 -45 20 -45 11 0 23 7 26 15 6 15 -11 45 -26
45 -4 0 -13 -7 -20 -15z"/>
<path d="M652 734 c-42 -29 -17 -104 35 -104 45 0 71 72 37 101 -23 19 -48 20
-72 3z"/>
<path d="M318 713 c-2 -4 -4 -17 -4 -28 1 -14 8 -20 26 -20 20 0 25 5 25 25 0
18 -6 26 -22 28 -11 2 -23 0 -25 -5z"/>
<path d="M1004 705 c-9 -23 3 -45 25 -45 21 0 30 16 23 43 -5 21 -40 23 -48 2z"/>
<path d="M130 630 c-11 -11 -20 -29 -20 -40 0 -25 34 -60 58 -60 49 1 77 65
43 99 -26 26 -55 27 -81 1z"/>
<path d="M492 607 c-9 -10 -8 -18 2 -32 18 -25 48 -13 44 17 -4 27 -30 35 -46
15z"/>
<path d="M837 613 c-13 -12 -7 -44 8 -49 24 -10 47 14 34 37 -10 19 -30 25
-42 12z"/>
<path d="M1182 611 c-18 -11 -12 -45 8 -48 27 -5 46 14 34 34 -13 21 -25 25
-42 14z"/>
<path d="M324 505 c-17 -12 -18 -15 -3 -30 17 -17 49 -11 49 10 0 24 -25 36
-46 20z"/>
<path d="M660 505 c-11 -13 -11 -19 3 -32 21 -21 49 -9 45 19 -4 28 -30 35
-48 13z"/>
<path d="M1007 514 c-13 -13 -7 -44 8 -50 20 -8 44 12 41 34 -3 17 -36 28 -49
16z"/>
<path d="M137 438 c-19 -15 -31 -58 -20 -74 26 -37 84 -36 102 2 15 34 14 41
-9 64 -23 23 -49 26 -73 8z"/>
<path d="M1160 430 c-23 -23 -22 -51 4 -79 22 -24 54 -20 79 10 19 24 15 56
-11 77 -23 18 -49 15 -72 -8z"/>
<path d="M487 407 c-3 -9 0 -22 6 -32 17 -22 49 -9 45 19 -4 25 -43 34 -51 13z"/>
<path d="M837 413 c-10 -10 -8 -41 3 -48 5 -3 19 -1 30 5 16 9 18 15 10 30
-11 20 -31 26 -43 13z"/>
<path d="M300 330 c-29 -29 -13 -82 30 -93 24 -6 70 28 70 52 0 53 -62 79
-100 41z"/>
<path d="M987 332 c-35 -39 -9 -102 41 -102 32 0 60 32 56 66 -5 51 -64 72
-97 36z"/>
<path d="M662 293 c2 -20 8 -28 23 -28 31 0 28 49 -3 53 -20 3 -23 0 -20 -25z"/>
<path d="M476 237 c-21 -16 -24 -60 -6 -82 17 -21 63 -19 83 3 47 52 -21 120
-77 79z"/>
<path d="M817 232 c-29 -32 -21 -69 19 -90 31 -17 68 6 72 44 5 56 -55 86 -91
46z"/>
<path d="M659 147 c-27 -14 -38 -69 -18 -93 15 -19 64 -18 83 2 44 44 -9 118
-65 91z"/>
</g>
</svg>
